mtllib Auto Turret - Barrel.mtl
g g0
v -1.87525 0.5625 0.562851
v -1.87525 0 0.750351
v -1.87525 -0.5625 0.562851
v -1.87525 -0.5625 -0.56215
v -1.87525 0 -0.74965
v 1.87475 0.5625 0.56285
v 1.87475 0 0.75035
v 1.87475 -0.5625 0.56285
v 1.87475 -0.5625 -0.56215
v 1.87475 0 -0.74965
v -1.0315 0.375 5.43785
v -1.0315 0.375 0.375351
v -0.469 0.375 0.375351
v -0.468999 0.375 5.43785
v -0.468999 -0.375 5.43785
v -0.469 -0.375 0.375351
v -1.0315 -0.375 0.375351
v -1.0315 -0.375 5.43785
v -0.468999 0 5.43785
v -0.469 0 0.375351
v -0.187749 0 5.43785
v -0.281499 -0.28125 5.43785
v -0.281499 0.28125 5.43785
v -0.18775 0 0.375351
v -0.2815 -0.28125 0.375351
v -0.2815 0.28125 0.375351
v -1.219 0.28125 0.375351
v -1.31275 0 0.375351
v -1.219 -0.28125 0.375351
v -1.219 0.28125 5.43785
v -1.31275 0 5.43785
v -1.219 -0.28125 5.43785
v -1.0315 0 0.375351
v -1.0315 0 5.43785
v 0.468501 0 5.43785
v 0.4685 0 0.375351
v 0.468501 -0.375 5.43785
v 0.281001 -0.28125 5.43785
v 0.187251 0 5.43785
v 0.281001 0.28125 5.43785
v 0.468501 0.375 5.43785
v 0.4685 -0.375 0.375351
v 0.281 -0.28125 0.375351
v 0.18725 0 0.375351
v 0.281 0.28125 0.375351
v 0.4685 0.375 0.375351
v 1.2185 0.28125 0.375351
v 1.031 0.375 0.375351
v 1.031 -0.375 0.375351
v 1.2185 -0.28125 0.375351
v 1.31225 0 0.375351
v 1.2185 0.28125 5.43785
v 1.031 0.375 5.43785
v 1.031 -0.375 5.43785
v 1.2185 -0.28125 5.43785
v 1.31225 0 5.43785
v 1.031 0 0.375351
v 1.031 0 5.43785
v -1.87525 0.5625 -0.56215
v -1.87525 0.75 0.000349998
v -1.87525 0.5625 0.562851
v -1.87525 0 0.750351
v -1.87525 -0.5625 0.562851
v -1.87525 -0.75 0.000349998
v -1.87525 -0.5625 -0.56215
v -1.87525 0 -0.74965
v 1.87475 0.5625 -0.56215
v 1.87475 0.75 0.000349998
v 1.87475 0.5625 0.56285
v 1.87475 0 0.75035
v 1.87475 -0.5625 0.56285
v 1.87475 -0.75 0.000349998
v 1.87475 -0.5625 -0.56215
v 1.87475 0 -0.74965
v -1.87525 0 0.000349998
v 1.87475 0 0.000349998
vn 2.70208e-007 0 1
vn 2.70208e-007 0 1
vn 2.56342e-007 0.316228 0.948683
vn 2.56342e-007 0.316228 0.948683
vn 2.56342e-007 -0.316228 0.948683
vn 2.56342e-007 -0.316228 0.948683
vn 2.70208e-007 0 1
vn 2.70208e-007 0 1
vn 0 -0.316228 -0.948683
vn 0 -0.316228 -0.948683
vn 0 -0.316228 -0.948683
vn 0 -0.316228 -0.948683
vn -0.229753 -0.973249 0
vn -0.229753 -0.973249 0
vn 0.229753 -0.973249 -4.59859e-008
vn 0.229753 -0.973249 -4.59859e-008
vn -0.229753 0.973249 0
vn 0.229753 0.973249 -4.59859e-008
vn 0.229753 0.973249 -4.59859e-008
vn -0.229753 0.973249 0
vn 0 0 1
vn 0 0 1
vn 0 0 1
vn 0 0 1
vn 0 0 -1
vn 0 0 -1
vn 0 0 -1
vn 0 0 -1
vn 0 0 1
vn 0 0 1
vn 0 0 1
vn 0 0 1
vn 0 0 1
vn 0 0 1
vn 0 0 1
vn 0 0 1
vn 0 0 1
vn 0 0 1
vn 0 0 1
vn 0 0 1
vn 0 0 -1
vn 0 0 -1
vn 0 0 -1
vn 0 0 -1
vn 0 0 -1
vn 0 0 -1
vn 0 0 -1
vn 0 0 -1
vn 0 0 -1
vn 0 0 -1
vn 0 0 -1
vn 0 0 -1
vn 0.755454 0.655202 -1.50451e-007
vn 0.755454 0.655202 -1.50451e-007
vn 1 0 -1.98682e-007
vn 1 0 -1.98682e-007
vn 1 0 -1.98682e-007
vn 1 0 -1.98682e-007
vn 0.755454 -0.655202 -1.50451e-007
vn 0.755454 -0.655202 -1.50451e-007
vn 0.755454 -0.655202 -1.50451e-007
vn 0.755454 -0.655202 -1.50451e-007
vn 0.229753 -0.973249 -4.59859e-008
vn 0.229753 -0.973249 -4.59859e-008
vn 0.229753 0.973249 -4.59859e-008
vn 0.229753 0.973249 -4.59859e-008
vn 0.755454 0.655202 -1.50451e-007
vn 0.755454 0.655202 -1.50451e-007
vn -0.755454 0.655202 0
vn -0.755454 0.655202 0
vn -0.229753 0.973249 0
vn -0.229753 0.973249 0
vn -1 0 0
vn -1 0 0
vn -0.755454 0.655202 0
vn -0.755454 0.655202 0
vn -0.755454 -0.655202 0
vn -0.755454 -0.655202 0
vn -1 0 0
vn -1 0 0
vn -0.229753 -0.973249 0
vn -0.229753 -0.973249 0
vn -0.755454 -0.655202 0
vn -0.755454 -0.655202 0
vn 0 0 -1
vn 0 0 -1
vn 0 0 -1
vn 0 0 -1
vn 0 0 -1
vn 0 0 -1
vn 0 0 -1
vn 0 0 -1
vn 0 0 -1
vn 0 0 -1
vn 0 0 -1
vn 0 0 -1
vn 0 0 1
vn 0 0 1
vn 0 0 1
vn 0 0 1
vn 0 0 1
vn 0 0 1
vn 0 0 1
vn 0 0 1
vn 0 0 1
vn 0 0 1
vn 0 0 1
vn 0 0 1
vn 0 0 1
vn 0 0 1
vn 0 0 1
vn 0 0 1
vn 0 0 1
vn 0 0 1
vn 0 0 1
vn 0 0 1
vn 0 0 1
vn 0 0 1
vn 0 0 1
vn 0 0 1
vn 0 0 -1
vn 0 0 -1
vn 0 0 -1
vn 0 0 -1
vn 0 0 -1
vn 0 0 -1
vn 0 0 -1
vn 0 0 -1
vn 0 0 -1
vn 0 0 -1
vn 0 0 -1
vn 0 0 -1
vn -0.229753 -0.973249 4.59859e-008
vn -0.229753 -0.973249 4.59859e-008
vn -0.755454 -0.655202 1.50451e-007
vn -0.755454 -0.655202 1.50451e-007
vn -0.755454 -0.655202 1.50451e-007
vn -0.755454 -0.655202 1.50451e-007
vn -1 0 1.98682e-007
vn -1 0 1.98682e-007
vn -1 0 1.98682e-007
vn -1 0 1.98682e-007
vn -0.755454 0.655202 1.50451e-007
vn -0.755454 0.655202 1.50451e-007
vn -0.755454 0.655202 1.50451e-007
vn -0.755454 0.655202 1.50451e-007
vn -0.229753 0.973249 4.59859e-008
vn -0.229753 0.973249 4.59859e-008
vn 0.229753 0.973249 0
vn 0.229753 0.973249 0
vn 0.755454 0.655202 0
vn 0.755454 0.655202 0
vn 0.755454 -0.655202 0
vn 0.755454 -0.655202 0
vn 0.229753 -0.973249 0
vn 0.229753 -0.973249 0
vn 1 0 0
vn 1 0 0
vn 0.755454 -0.655202 0
vn 0.755454 -0.655202 0
vn 0.755454 0.655202 0
vn 0.755454 0.655202 0
vn 1 0 0
vn 1 0 0
vn 0 0 -1
vn 0 0 -1
vn 0 0 -1
vn 0 0 -1
vn 0 0 -1
vn 0 0 -1
vn 0 0 -1
vn 0 0 -1
vn 0 0 -1
vn 0 0 -1
vn 0 0 -1
vn 0 0 -1
vn 0 0 1
vn 0 0 1
vn 0 0 1
vn 0 0 1
vn 0 0 1
vn 0 0 1
vn 0 0 1
vn 0 0 1
vn 0 0 1
vn 0 0 1
vn 0 0 1
vn 0 0 1
vn 0 0 -1
vn 0 0 -1
vn 0 0 -1
vn 0 0 -1
vn 0 0 1
vn 0 0 1
vn 0 0 1
vn 0 0 1
vn -0.229753 0.973249 4.59859e-008
vn 0.229753 0.973249 0
vn 0.229753 0.973249 0
vn -0.229753 0.973249 4.59859e-008
vn -0.229753 -0.973249 4.59859e-008
vn -0.229753 -0.973249 4.59859e-008
vn 0.229753 -0.973249 0
vn 0.229753 -0.973249 0
vn 2.25173e-008 1 0
vn 2.25173e-008 1 0
vn 0 0.948683 -0.316228
vn 0 0.948683 -0.316228
vn 4.27236e-008 0.948683 0.316228
vn 4.27236e-008 0.948683 0.316228
vn 2.25173e-008 1 0
vn 2.25173e-008 1 0
vn 2.25173e-008 -1 0
vn 2.25173e-008 -1 0
vn 4.27236e-008 -0.948683 0.316228
vn 4.27236e-008 -0.948683 0.316228
vn 0 -0.948683 -0.316228
vn 0 -0.948683 -0.316228
vn 2.25173e-008 -1 0
vn 2.25173e-008 -1 0
vn 0 0.316228 -0.948683
vn 0 0.316228 -0.948683
vn 0 0.316228 -0.948683
vn 0 0.316228 -0.948683
vn -1 0 0
vn -1 0 0
vn -1 0 0
vn -1 0 0
vn -1 0 0
vn -1 0 0
vn -1 0 0
vn -1 0 0
vn -1 0 0
vn -1 0 0
vn -1 0 0
vn -1 0 0
vn -1 0 0
vn -1 0 0
vn -1 0 0
vn -1 0 0
vn -1 0 0
vn -1 0 0
vn -1 0 0
vn -1 0 0
vn -1 0 0
vn -1 0 0
vn -1 0 0
vn -1 0 0
vn 1 0 0
vn 1 0 0
vn 1 0 0
vn 1 0 0
vn 1 0 0
vn 1 0 0
vn 1 0 0
vn 1 0 0
vn 1 0 0
vn 1 0 0
vn 1 0 0
vn 1 0 0
vn 1 0 0
vn 1 0 0
vn 1 0 0
vn 1 0 0
vn 1 0 0
vn 1 0 0
vn 1 0 0
vn 1 0 0
vn 1 0 0
vn 1 0 0
vn 1 0 0
vn 1 0 0
vt 0.281398 0.094019
vt 0.281398 0.281585
vt 0.250148 0.281585
vt 0.250148 0.094019
vt 0.312648 0.094019
vt 0.312648 0.281585
vt 0.281398 0.281585
vt 0.281398 0.094019
vt 0.406398 0.094019
vt 0.406398 0.281585
vt 0.375148 0.281585
vt 0.375148 0.094019
vt 0.118705 0.094329
vt 0.118705 0.460354
vt 0.084231 0.460354
vt 0.084231 0.094329
vt 0.168381 0.094329
vt 0.202855 0.094329
vt 0.202855 0.460354
vt 0.168381 0.460354
vt 0.444385 0.374865
vt 0.444385 0.291532
vt 0.381885 0.291532
vt 0.381885 0.374865
vt 0.220233 0.423939
vt 0.251483 0.423939
vt 0.251483 0.455189
vt 0.220233 0.455189
vt 0.381885 0.333198
vt 0.350635 0.333198
vt 0.362838 0.362661
vt 0.381885 0.333198
vt 0.362838 0.303736
vt 0.350635 0.333198
vt 0.381885 0.333198
vt 0.381885 0.291532
vt 0.362838 0.303736
vt 0.381885 0.333198
vt 0.362838 0.362661
vt 0.381885 0.374865
vt 0.220233 0.423939
vt 0.220233 0.423939
vt 0.220233 0.423939
vt 0.220233 0.423939
vt 0.220233 0.423939
vt 0.220233 0.423939
vt 0.220233 0.423939
vt 0.220233 0.423939
vt 0.220233 0.423939
vt 0.220233 0.423939
vt 0.220233 0.423939
vt 0.220233 0.423939
vt 0.045199 0.460354
vt 0.045199 0.094329
vt 0.059393 0.094329
vt 0.059393 0.460354
vt 0.059393 0.460354
vt 0.059393 0.094329
vt 0.073587 0.094329
vt 0.073587 0.460354
vt 0.073587 0.460354
vt 0.073587 0.094329
vt 0.084231 0.094329
vt 0.084231 0.460354
vt 0.034555 0.460354
vt 0.034555 0.094329
vt 0.045199 0.094329
vt 0.045199 0.460354
vt 0.157737 0.460354
vt 0.157737 0.094329
vt 0.168381 0.094329
vt 0.168381 0.460354
vt 0.143543 0.460354
vt 0.143543 0.094329
vt 0.157737 0.094329
vt 0.157737 0.460354
vt 0.129349 0.460354
vt 0.129349 0.094329
vt 0.143543 0.094329
vt 0.143543 0.460354
vt 0.118705 0.460354
vt 0.118705 0.094329
vt 0.129349 0.094329
vt 0.129349 0.460354
vt 0.220233 0.423939
vt 0.220233 0.423939
vt 0.220233 0.423939
vt 0.220233 0.423939
vt 0.220233 0.423939
vt 0.220233 0.423939
vt 0.220233 0.423939
vt 0.220233 0.423939
vt 0.220233 0.423939
vt 0.220233 0.423939
vt 0.220233 0.423939
vt 0.220233 0.423939
vt 0.444385 0.333198
vt 0.444385 0.374865
vt 0.46343 0.362661
vt 0.444385 0.333198
vt 0.46343 0.362661
vt 0.475634 0.333198
vt 0.444385 0.333198
vt 0.475634 0.333198
vt 0.46343 0.303736
vt 0.444385 0.333198
vt 0.46343 0.303736
vt 0.444385 0.291532
vt 0.444385 0.333198
vt 0.463431 0.303736
vt 0.444385 0.291532
vt 0.444385 0.333198
vt 0.475634 0.333198
vt 0.463431 0.303736
vt 0.444385 0.333198
vt 0.463431 0.362661
vt 0.475634 0.333198
vt 0.444385 0.333198
vt 0.444385 0.374865
vt 0.463431 0.362661
vt 0.220233 0.423939
vt 0.220233 0.423939
vt 0.220233 0.423939
vt 0.220233 0.423939
vt 0.220233 0.423939
vt 0.220233 0.423939
vt 0.220233 0.423939
vt 0.220233 0.423939
vt 0.220233 0.423939
vt 0.220233 0.423939
vt 0.220233 0.423939
vt 0.220233 0.423939
vt 0.118705 0.460354
vt 0.118705 0.094329
vt 0.129349 0.094329
vt 0.129349 0.460354
vt 0.129349 0.460354
vt 0.129349 0.094329
vt 0.143543 0.094329
vt 0.143543 0.460354
vt 0.143543 0.460354
vt 0.143543 0.094329
vt 0.157737 0.094329
vt 0.157737 0.460354
vt 0.157737 0.460354
vt 0.157737 0.094329
vt 0.168381 0.094329
vt 0.168381 0.460354
vt 0.034555 0.460354
vt 0.034555 0.094329
vt 0.045199 0.094329
vt 0.045199 0.460354
vt 0.073587 0.460354
vt 0.073587 0.094329
vt 0.084231 0.094329
vt 0.084231 0.460354
vt 0.059393 0.460354
vt 0.059393 0.094329
vt 0.073587 0.094329
vt 0.073587 0.460354
vt 0.045199 0.460354
vt 0.045199 0.094329
vt 0.059393 0.094329
vt 0.059393 0.460354
vt 0.220233 0.423939
vt 0.220233 0.423939
vt 0.220233 0.423939
vt 0.220233 0.423939
vt 0.220233 0.423939
vt 0.220233 0.423939
vt 0.220233 0.423939
vt 0.220233 0.423939
vt 0.220233 0.423939
vt 0.220233 0.423939
vt 0.220233 0.423939
vt 0.220233 0.423939
vt 0.381885 0.333198
vt 0.362839 0.362661
vt 0.381885 0.374865
vt 0.381885 0.333198
vt 0.381885 0.291532
vt 0.362839 0.303736
vt 0.381885 0.333198
vt 0.362839 0.303736
vt 0.350635 0.333198
vt 0.381885 0.333198
vt 0.350635 0.333198
vt 0.362839 0.362661
vt 0.220233 0.423939
vt 0.251483 0.423939
vt 0.251483 0.455189
vt 0.220233 0.455189
vt 0.444385 0.374865
vt 0.444385 0.291532
vt 0.381885 0.291532
vt 0.381885 0.374865
vt 0.168381 0.094329
vt 0.202855 0.094329
vt 0.202855 0.460354
vt 0.168381 0.460354
vt 0.118705 0.094329
vt 0.118705 0.460354
vt 0.084231 0.460354
vt 0.084231 0.094329
vt 0.468898 0.094019
vt 0.468898 0.281585
vt 0.437648 0.281585
vt 0.437648 0.094019
vt 0.250148 0.094019
vt 0.250148 0.281585
vt 0.218898 0.281585
vt 0.218898 0.094019
vt 0.343898 0.094019
vt 0.343898 0.281585
vt 0.312648 0.281585
vt 0.312648 0.094019
vt 0.375148 0.094019
vt 0.375148 0.281585
vt 0.343898 0.281585
vt 0.343898 0.094019
vt 0.437648 0.094019
vt 0.437648 0.281585
vt 0.406398 0.281585
vt 0.406398 0.094019
vt 0.28195 0.358017
vt 0.28195 0.420517
vt 0.328825 0.404892
vt 0.28195 0.358017
vt 0.235075 0.404892
vt 0.28195 0.420517
vt 0.28195 0.358017
vt 0.21945 0.358017
vt 0.235075 0.404892
vt 0.28195 0.358017
vt 0.235075 0.311142
vt 0.21945 0.358017
vt 0.28195 0.358017
vt 0.28195 0.295517
vt 0.235075 0.311142
vt 0.28195 0.358017
vt 0.328825 0.311142
vt 0.28195 0.295517
vt 0.28195 0.358017
vt 0.34445 0.358017
vt 0.328825 0.311142
vt 0.28195 0.358017
vt 0.328825 0.404892
vt 0.34445 0.358017
vt 0.28195 0.358017
vt 0.328825 0.404892
vt 0.28195 0.420517
vt 0.28195 0.358017
vt 0.28195 0.420517
vt 0.235075 0.404892
vt 0.28195 0.358017
vt 0.235075 0.404892
vt 0.21945 0.358017
vt 0.28195 0.358017
vt 0.21945 0.358017
vt 0.235075 0.311142
vt 0.28195 0.358017
vt 0.235075 0.311142
vt 0.28195 0.295517
vt 0.28195 0.358017
vt 0.28195 0.295517
vt 0.328825 0.311142
vt 0.28195 0.358017
vt 0.328825 0.311142
vt 0.34445 0.358017
vt 0.28195 0.358017
vt 0.34445 0.358017
vt 0.328825 0.404892
usemtl acmat_0
f 2/1/1 7/2/2 6/3/3 1/4/4
f 3/5/5 8/6/6 7/7/7 2/8/8
f 5/9/9 10/10/10 9/11/11 4/12/12
f 18/13/13 17/14/14 16/15/15 15/16/16
f 11/17/17 14/18/18 13/19/19 12/20/20
f 11/21/21 18/22/22 15/23/23 14/24/24
f 13/25/25 16/26/26 17/27/27 12/28/28
f 19/29/29 21/30/30 23/31/31
f 19/32/32 22/33/33 21/34/34
f 19/35/35 15/36/36 22/37/37
f 19/38/38 23/39/39 14/40/40
f 20/41/41 26/42/42 24/43/43
f 20/44/44 24/45/45 25/46/46
f 20/47/47 25/48/48 16/49/49
f 20/50/50 13/51/51 26/52/52
f 26/53/53 23/54/54 21/55/55 24/56/56
f 24/57/57 21/58/58 22/59/59 25/60/60
f 25/61/61 22/62/62 15/63/63 16/64/64
f 13/65/65 14/66/66 23/67/67 26/68/68
f 27/69/69 30/70/70 11/71/71 12/72/72
f 28/73/73 31/74/74 30/75/75 27/76/76
f 29/77/77 32/78/78 31/79/79 28/80/80
f 17/81/81 18/82/82 32/83/83 29/84/84
f 33/85/85 27/86/86 12/87/87
f 33/88/88 28/89/89 27/90/90
f 33/91/91 29/92/92 28/93/93
f 33/94/94 17/95/95 29/96/96
f 34/97/97 11/98/98 30/99/99
f 34/100/100 30/101/101 31/102/102
f 34/103/103 31/104/104 32/105/105
f 34/106/106 32/107/107 18/108/108
f 35/109/109 38/110/110 37/111/111
f 35/112/112 39/113/113 38/114/114
f 35/115/115 40/116/116 39/117/117
f 35/118/118 41/119/119 40/120/120
f 36/121/121 42/122/122 43/123/123
f 36/124/124 43/125/125 44/126/126
f 36/127/127 44/128/128 45/129/129
f 36/130/130 45/131/131 46/132/132
f 42/133/133 37/134/134 38/135/135 43/136/136
f 43/137/137 38/138/138 39/139/139 44/140/140
f 44/141/141 39/142/142 40/143/143 45/144/144
f 45/145/145 40/146/146 41/147/147 46/148/148
f 48/149/149 53/150/150 52/151/151 47/152/152
f 50/153/153 55/154/154 54/155/155 49/156/156
f 51/157/157 56/158/158 55/159/159 50/160/160
f 47/161/161 52/162/162 56/163/163 51/164/164
f 57/165/165 48/166/166 47/167/167
f 57/168/168 50/169/169 49/170/170
f 57/171/171 51/172/172 50/173/173
f 57/174/174 47/175/175 51/176/176
f 58/177/177 52/178/178 53/179/179
f 58/180/180 54/181/181 55/182/182
f 58/183/183 55/184/184 56/185/185
f 58/186/186 56/187/187 52/188/188
f 48/189/189 49/190/190 42/191/191 46/192/192
f 41/193/193 37/194/194 54/195/195 53/196/196
f 41/197/197 53/198/198 48/199/199 46/200/200
f 37/201/201 42/202/202 49/203/203 54/204/204
f 60/205/205 68/206/206 67/207/207 59/208/208
f 61/209/209 69/210/210 68/211/211 60/212/212
f 64/213/213 72/214/214 71/215/215 63/216/216
f 65/217/217 73/218/218 72/219/219 64/220/220
f 59/221/221 67/222/222 74/223/223 66/224/224
f 75/225/225 60/226/226 59/227/227
f 75/228/228 61/229/229 60/230/230
f 75/231/231 62/232/232 61/233/233
f 75/234/234 63/235/235 62/236/236
f 75/237/237 64/238/238 63/239/239
f 75/240/240 65/241/241 64/242/242
f 75/243/243 66/244/244 65/245/245
f 75/246/246 59/247/247 66/248/248
f 76/249/249 67/250/250 68/251/251
f 76/252/252 68/253/253 69/254/254
f 76/255/255 69/256/256 70/257/257
f 76/258/258 70/259/259 71/260/260
f 76/261/261 71/262/262 72/263/263
f 76/264/264 72/265/265 73/266/266
f 76/267/267 73/268/268 74/269/269
f 76/270/270 74/271/271 67/272/272
